<svg xmlns="http://www.w3.org/2000/svg" xmlns:xlink="http://www.w3.org/1999/xlink" width="730.953" height="166.302" viewBox="0 0 730.953 166.302">
  <defs>
    <linearGradient id="linear-gradient" x1="2.153" y1="0.863" x2="1.576" y2="-0.546" gradientUnits="objectBoundingBox">
      <stop offset="0" stop-color="#b39ddb"/>
      <stop offset="0.347" stop-color="#cdbfe7"/>
      <stop offset="1" stop-color="#fff"/>
    </linearGradient>
  </defs>
  <g id="logo2" transform="translate(0 -0.003)">
    <g id="Layer_1" data-name="Layer 1">
      <path id="Path_577" data-name="Path 577" d="M481.43,39.24V82.35a37.73,37.73,0,0,1-11.13,26.87l-16,16,14.14,14.15,16-16a57.61,57.61,0,0,0,17-41V39.24Z" fill="url(#linear-gradient)"/>
      <path id="Path_578" data-name="Path 578" d="M455,39.24H435v35.7a13.31,13.31,0,0,1-13.29,13.3H408.5A13.52,13.52,0,0,1,395,74.74V60.47a31.27,31.27,0,0,0-31.23-31.23H318.24A31.27,31.27,0,0,0,287,60.47V74.74a13.52,13.52,0,0,1-13.5,13.5H261.29A13.31,13.31,0,0,1,248,74.94V39.24H228v35.7a13.31,13.31,0,0,1-13.29,13.3H185.79v20h28.92A33.18,33.18,0,0,0,238,98.71a33.18,33.18,0,0,0,23.29,9.53H273.5a33.39,33.39,0,0,0,22.82-9,31.14,31.14,0,0,0,21.92,9h45.5a31.17,31.17,0,0,0,21.93-9,33.34,33.34,0,0,0,22.83,9h13.21A33.34,33.34,0,0,0,455,74.94ZM375,77a11.25,11.25,0,0,1-11.23,11.24h-45.5A11.25,11.25,0,0,1,307,77V60.47a11.25,11.25,0,0,1,11.24-11.23h45.53A11.25,11.25,0,0,1,375,60.47v3.85h0Z" fill="url(#linear-gradient)"/>
      <path id="Path_579" data-name="Path 579" d="M188,39.24H168v35.7a13.31,13.31,0,0,1-13.29,13.3H33.29A13.31,13.31,0,0,1,20,74.94V57.74H0v17.2a33.34,33.34,0,0,0,33.29,33.3H154.71A33.34,33.34,0,0,0,188,74.94Z" fill="url(#linear-gradient)"/>
      <rect id="Rectangle_168" data-name="Rectangle 168" width="51.68" height="20" transform="translate(385 127.29)" fill="url(#linear-gradient)"/>
      <rect id="Rectangle_169" data-name="Rectangle 169" width="51.68" height="20" transform="translate(185.79 127.29)" fill="url(#linear-gradient)"/>
      <rect id="Rectangle_170" data-name="Rectangle 170" width="51.68" height="20" transform="translate(68.16 38.74)" fill="url(#linear-gradient)"/>
      <path id="Path_580" data-name="Path 580" d="M651.08,49h-22V81h22a13.58,13.58,0,0,0,10.37-4.72,16.24,16.24,0,0,0,4.34-11.38,15.94,15.94,0,0,0-4.34-11.29A13.68,13.68,0,0,0,651.08,49Z" fill="url(#linear-gradient)"/>
      <path id="Path_581" data-name="Path 581" d="M729.19,43.3A45.81,45.81,0,0,0,687.64,1.75a455.132,455.132,0,0,0-79.69,0A45.8,45.8,0,0,0,566.4,43.3a451.4,451.4,0,0,0,0,79.7A45.79,45.79,0,0,0,608,164.55a453.193,453.193,0,0,0,79.69,0A45.8,45.8,0,0,0,729.19,123a451.377,451.377,0,0,0,0-79.7Zm-62,94L645.3,99.7H629.11v37.6H607.75V29h43.33a34.73,34.73,0,0,1,25.53,10.52A34.59,34.59,0,0,1,687.14,64.9a33,33,0,0,1-5.73,18.66,35.9,35.9,0,0,1-15.16,12.91l24,40.85Z" fill="url(#linear-gradient)"/>
    </g>
  </g>
</svg>
